<?xml version="1.0" encoding="utf-8"?>
<!-- Svg Vector Icons : http://www.onlinewebfonts.com/icon -->
<!DOCTYPE svg PUBLIC "-//W3C//DTD SVG 1.1//EN" "http://www.w3.org/Graphics/SVG/1.1/DTD/svg11.dtd">
<svg version="1.1" xmlns="http://www.w3.org/2000/svg" xmlns:xlink="http://www.w3.org/1999/xlink" x="0px" y="0px" viewBox="0 0 1000 1000" enable-background="new 0 0 1000 1000" xml:space="preserve">
<metadata> Svg Vector Icons : http://www.onlinewebfonts.com/icon </metadata>
<g><g transform="translate(0.000000,486.000000) scale(0.100000,-0.100000)"><path d="M3252.5,4448c-34.5-34.5-116.8-130.2-183.8-212.5c-279.5-338.8-545.5-516.8-1226.9-821.1c-279.5-124.4-526.4-245-549.3-266.1c-30.6-28.7-44-63.2-44-109.1c0-55.5,15.3-82.3,95.7-157c120.6-112.9,357.9-237.3,547.4-285.2c109.1-28.7,212.5-38.3,398.1-38.3l250.7-1.9L2377.7,2400c-248.8-241.2-434.5-354.1-1031.7-620.2c-290.9-130.2-541.7-248.8-557-264.1c-15.3-17.2-28.7-63.2-28.7-107.2c0-68.9,11.5-90,76.6-147.4c220.1-193.3,478.5-300.5,792.4-331.1c111-9.6,212.5-23,222-24.9c30.6-11.5-235.4-252.7-411.5-373.2c-193.3-132.1-333-202.9-878.6-444.1C136.4-99.8,100-124.7,100-239.5c0-95.7,294.8-313.9,541.7-396.2l99.5-34.4l5.7-1571.4l3.8-1573.4H5000h4249.2l3.8,1573.4l5.7,1571.4l99.5,34.4c246.9,82.3,541.7,300.5,541.7,396.2c0,40.2-47.9,157-65.1,157c-3.8,0-225.8,80.4-493.8,179.9c-700.5,258.4-945.5,392.4-1238.4,671.8l-143.6,139.7l179.9,11.5c348.4,26.8,635.5,137.8,834.5,327.3c88.1,82.3,103.4,107.2,103.4,164.6c0,45.9-13.4,80.4-42.1,107.2c-24.9,21-250.7,114.8-503.4,206.7c-534,195.2-758,298.6-962.8,444.1c-160.8,116.7-424.9,344.5-424.9,369.4c0,7.7,170.4,19.1,379,23c327.3,7.7,394.3,15.3,501.5,51.7c183.7,65.1,331.1,147.4,453.6,260.3c95.7,86.1,109.1,107.2,109.1,168.4c0,45.9-13.4,84.2-36.4,107.2c-21,19.1-252.7,114.8-516.8,212.5c-262.2,95.7-539.8,204.8-616.3,241.2c-325.4,155-654.6,421.1-880.5,710.1c-68.9,88-139.7,168.4-158.9,178c-23,11.5-593.4,19.1-1550.4,19.1H3311.8L3252.5,4448z M6347.5,4034.6c346.4-411.5,746.5-671.8,1397.3-911.1c179.9-67,327.3-128.2,325.4-137.8c0-7.7-44-32.5-95.7-53.6c-91.9-38.3-143.6-38.3-3012.7-44c-2857.7-3.8-2920.9-3.8-3043.4,32.5c-229.7,70.8-229.7,70.8,109.1,220.1c166.5,72.7,373.2,168.4,457.5,214.4c308.2,164.6,618.2,415.3,840.3,677.6l128.2,153.1h1381.9h1383.9L6347.5,4034.6z M6958.1,2285.1c407.7-411.5,675.7-576.1,1309.2-807.7c170.3-61.3,306.3-118.7,300.5-128.2c-5.8-7.7-67-32.5-137.8-53.6c-128.2-40.2-132.1-40.2-3506.6-40.2c-1858.6,0-3405.1,5.7-3435.7,13.4c-78.5,17.2-239.3,86.1-239.3,101.4c0,5.7,135.9,70.8,302.4,143.6c637.4,279.5,976.2,522.5,1368.6,983.8l51.7,61.3h1856.6h1856.6L6958.1,2285.1z M7616.5,813.2c224-281.4,581.9-566.6,924.5-738.8c120.6-61.3,359.8-162.7,532.1-224c170.4-63.2,310.1-118.7,310.1-126.3c0-23-145.5-72.8-271.8-93.8c-168.4-26.8-8056.3-26.8-8226.6,1.9c-68.9,9.6-166.5,38.3-218.2,61.3l-95.7,44l357.9,158.9c396.2,178,570.4,273.7,780.9,430.7c156.9,118.7,438.3,390.5,526.4,509.1l55.5,76.6h2622.3h2622.3L7616.5,813.2z M8923.8-2101.9v-1387.7h-323.5H8275l-5.7,867.1l-5.7,865.2l-61.3,128.2c-76.6,162.7-202.9,289-365.6,365.6l-128.2,61.3h-335c-302.4-1.9-346.4-5.7-444.1-45.9c-143.6-55.5-298.6-199.1-380.9-350.3l-65.1-120.6l-5.7-886.2l-5.7-884.3h-323.5H5825l-5.7,867.1l-5.7,865.2l-61.3,128.2c-76.6,162.7-202.9,289-365.6,365.6l-128.2,61.3h-335c-304.3,0-344.5-5.7-444.1-44c-143.6-57.4-298.6-201-380.9-352.2l-65.1-120.6l-5.7-884.3l-5.7-886.2H3775h-246.9l-5.7,884.3l-5.7,886.2l-65.1,120.6c-82.3,151.2-237.3,294.8-380.9,350.3c-97.6,40.2-141.7,44-444.1,45.9h-335l-128.2-61.3c-162.7-76.6-289-202.9-365.6-365.6l-61.3-128.2l-5.7-867.1l-5.7-865.2h-325.4h-323.5v1387.7v1387.7H5000h3923.8V-2101.9z M2930.9-1539.2c114.8-24.9,191.4-84.2,233.5-178c32.5-72.7,36.4-141.6,36.4-926.4v-846l-568.5,3.8l-570.4,5.7l-5.7,811.6c-1.9,514.9,3.8,836.4,15.3,884.3c34.4,124.4,130.2,218.2,258.4,248.8C2417.9-1514.3,2835.2-1516.2,2930.9-1539.2z M5298.6-1562.1c74.7-38.3,155-134,176.1-201c7.7-28.7,13.4-426.8,13.4-884.3V-3480l-568.5-5.7l-570.4-3.8v846c0,780.9,3.8,853.7,36.4,924.5c76.6,168.4,179.9,202.9,576.1,195.2C5176.1-1527.7,5252.7-1537.3,5298.6-1562.1z M7748.6-1562.1c74.7-38.3,155-134,176.1-201c7.7-28.7,13.4-426.8,13.4-884.3V-3480l-568.5-5.7l-570.4-3.8v846c0,780.9,3.8,853.7,36.4,924.5c76.6,168.4,179.9,202.9,576.1,195.2C7626.1-1527.7,7702.7-1537.3,7748.6-1562.1z"/><path d="M526.8-3987.3c-67-26.8-107.2-105.3-93.8-181.8c26.8-135.9-386.6-124.4,4570.8-124.4c4431,0,4475.1,0,4513.4,38.3c82.3,82.3,65.1,210.5-38.3,262.2c-38.3,19.1-970.4,24.9-4478.9,23C2484.9-3970,551.7-3977.7,526.8-3987.3z"/><path d="M155.5-4521.3c-32.5-34.4-55.5-76.6-55.5-107.2s23-72.7,55.5-107.2l55.5-55.5h4789h4789l55.5,55.5c72.8,72.7,72.8,141.6,0,214.4l-55.5,55.5H5000H211L155.5-4521.3z"/></g></g>
</svg>